<svg width="237" height="80" viewBox="0 0 237 80" fill="none" xmlns="http://www.w3.org/2000/svg">
<path d="M17.5996 73.7888C15.9504 73.7888 14.6742 73.795 13.398 73.7877C6.78437 73.7499 3.86276 70.2816 4.75325 63.4026C6.39327 50.7336 8.22777 38.0895 9.66184 25.3957C10.181 20.8 9.1383 21 14.5 21C18.3298 21 18.7939 21 20.5 21C20.5 10.5 24 5.5 32 5.5C40 5.5 43.5 11 43.5 21C45.8018 21 45.8826 21 50.8613 21C53.1533 20.847 54.0658 21.5411 54.3149 23.7827C54.6527 26.8234 55.3499 30.9541 55.5319 34C55.5319 34 55.7974 36.8 54.383 36.8C52.9685 36.8 52.5 35.5 52.1822 33.4623C51.7169 30.4788 51.2896 27.4678 50.8613 24.3308C38.3879 24.3308 26.171 24.3308 13.4978 24.3308C12.8836 28.804 12.2264 33.3606 11.6379 37.9268C10.4982 46.7696 9.32788 55.6091 8.30967 64.4675C7.80912 68.8223 9.21296 70.3892 13.3412 70.4928C16.2749 70.5665 19.2214 70.3755 22.1405 70.6043C22.9812 70.6702 24.5466 70.6043 24.5466 72.416C24.1277 74 23.0729 73.6545 22.238 73.7888C20.8664 74.0095 19.3765 73.7871 17.5996 73.7888ZM23.5 21C30 21 30 21 40 21C40 16 39.7263 11.1385 36.5 9.5C34.1127 8.28755 29.2307 8.26381 27.5 9.5C24 12 23.5 16 23.5 21Z" fill="white"/>
<path d="M29.3762 49.0589C30.7728 37.6 30.8996 39.2869 40.2275 39.287C46.8541 39.287 53.4831 39.3958 60.1059 39.233C62.6919 39.1694 63.79 40.1784 64.095 42.7721C64.9636 50.16 66.0433 57.5217 66.8552 64.9157C67.4433 70.2725 64.3631 73.9566 59.1554 74.0505C51.1295 74.1951 43.0974 74.2024 35.0719 74.046C29.9615 73.9464 27.0885 70.6506 27.4756 65.2386C27.8543 59.9433 28.6906 54.6837 29.3762 49.0589ZM40.2699 70.4873C44.9781 70.4873 49.6864 70.4873 54.3947 70.4872C63.8667 70.4872 64.0376 70.2883 62.8741 60.6652C62.8104 60.1382 62.808 59.6025 62.7345 59.0774C61.9923 53.7755 61.2412 48.475 60.5232 43.3908C51.248 43.3908 42.5301 43.3908 33.7572 43.3908C32.8237 50.4915 31.9317 57.3284 31.024 64.163C30.4453 68.521 31.9009 70.3582 36.09 70.4813C37.2343 70.5149 38.3803 70.487 40.2699 70.4873Z" fill="white"/>
<path d="M45.6017 60.5689C41.7488 60.1703 38.3055 55.7738 38.4637 51.6192C38.5037 50.5706 38.2979 48.8 39.8298 48.5605C41.3617 48.3209 41.6862 50.1917 41.7488 51.0794C42.0001 54.6376 43.5421 57.1563 46.978 57.2197C50.6098 57.2868 52.2966 54.8027 52.4796 51.0037C52.5202 50.1598 52.8511 48.8 54.2838 48.5605C55.532 48.8 55.7966 50.3325 55.8532 51.2648C56.184 56.7148 51.7022 61.2 45.6017 60.5689Z" fill="white"/>
<ellipse cx="23.5149" cy="31.76" rx="2.06809" ry="2.16" fill="white"/>
<ellipse cx="40.3659" cy="31.76" rx="2.06809" ry="2.16" fill="white"/>
<path d="M81.185 36.167C81.185 35.9203 81.5427 35.5997 82.258 35.205C82.9733 34.7857 83.9477 34.4033 85.181 34.058C86.4143 33.7127 87.623 33.54 88.807 33.54C91.1997 33.54 92.433 34.1197 92.507 35.279L93.432 47.045H93.913L94.727 35.871C94.7763 35.2543 95.6273 34.7117 97.28 34.243C98.9327 33.7743 100.388 33.54 101.646 33.54C102.904 33.54 103.841 33.651 104.458 33.873C105.099 34.095 105.506 34.3293 105.679 34.576C105.852 34.798 105.938 34.9953 105.938 35.168C105.938 35.3407 105.408 36.611 104.347 38.979C103.311 41.347 101.227 46.3913 98.094 54.112C97.8473 54.704 95.837 55 92.063 55C90.879 55 90.102 54.9383 89.732 54.815C89.362 54.667 89.1153 54.4327 88.992 54.112C87.29 49.82 85.5633 45.787 83.812 42.013C82.0607 38.2143 81.185 36.2657 81.185 36.167ZM117.582 35.871V54.112C117.582 54.3833 116.867 54.6053 115.436 54.778C114.03 54.926 112.575 55 111.07 55C109.59 55 108.628 54.9383 108.184 54.815C107.765 54.667 107.555 54.4327 107.555 54.112V36.537C107.555 35.9943 108.246 35.464 109.627 34.946C111.033 34.4033 112.563 34.132 114.215 34.132C116.46 34.132 117.582 34.7117 117.582 35.871ZM112.55 26.14C114.178 26.14 115.449 26.3867 116.361 26.88C117.299 27.3487 117.767 28.212 117.767 29.47C117.767 31.69 116.041 32.8 112.587 32.8C109.134 32.8 107.407 31.69 107.407 29.47C107.407 27.25 109.122 26.14 112.55 26.14ZM130.518 35.871V54.112C130.518 54.3833 129.803 54.6053 128.372 54.778C126.966 54.926 125.511 55 124.006 55C122.526 55 121.564 54.9383 121.12 54.815C120.701 54.667 120.491 54.4327 120.491 54.112V36.537C120.491 35.9943 121.182 35.464 122.563 34.946C123.969 34.4033 125.498 34.132 127.151 34.132C129.396 34.132 130.518 34.7117 130.518 35.871ZM125.486 26.14C127.114 26.14 128.384 26.3867 129.297 26.88C130.234 27.3487 130.703 28.212 130.703 29.47C130.703 31.69 128.976 32.8 125.523 32.8C122.07 32.8 120.343 31.69 120.343 29.47C120.343 27.25 122.057 26.14 125.486 26.14ZM155.589 42.716V54.112C155.589 54.3833 154.886 54.6053 153.48 54.778C152.074 54.926 150.619 55 149.114 55C147.634 55 146.672 54.9383 146.228 54.815C145.809 54.667 145.599 54.4327 145.599 54.112V42.346C145.599 41.236 145.55 40.5083 145.451 40.163C145.377 39.8177 145.303 39.5093 145.229 39.238C145.057 38.7693 144.748 38.535 144.304 38.535C143.614 38.535 143.268 38.868 143.268 39.534V54.112C143.268 54.3833 142.565 54.6053 141.159 54.778C139.778 54.926 138.335 55 136.83 55C135.35 55 134.388 54.9383 133.944 54.815C133.5 54.667 133.278 54.4327 133.278 54.112V35.871C133.278 35.353 133.981 34.835 135.387 34.317C136.818 33.799 138.323 33.54 139.901 33.54C141.48 33.54 142.368 33.9963 142.565 34.909L142.898 36.537H143.157C143.873 35.1063 145.106 34.1073 146.857 33.54C147.573 33.318 148.362 33.207 149.225 33.207C151.717 33.207 153.394 33.9593 154.257 35.464C155.145 36.944 155.589 39.3613 155.589 42.716ZM172.715 54.667C172.271 55.0863 171.26 55.296 169.681 55.296C168.102 55.296 166.795 55.1973 165.759 55C164.723 54.778 163.736 54.3587 162.799 53.742C160.998 52.5333 160.098 50.0173 160.098 46.194V40.422H158.248C157.977 40.422 157.742 40.1383 157.545 39.571C157.348 39.0037 157.249 38.2267 157.249 37.24C157.249 36.2533 157.397 35.39 157.693 34.65C158.014 33.8853 158.421 33.503 158.914 33.503H160.098V29.026C160.098 28.2613 160.838 27.6447 162.318 27.176C163.823 26.7073 165.29 26.473 166.721 26.473C168.966 26.473 170.088 27.028 170.088 28.138V33.503H172.826C173.467 33.503 173.788 34.428 173.788 36.278C173.788 37.4867 173.64 38.4857 173.344 39.275C173.073 40.0397 172.715 40.422 172.271 40.422H170.088V47.193C170.088 47.859 170.372 48.34 170.939 48.636C171.506 48.9073 172 49.043 172.419 49.043C172.863 49.043 173.134 49.2527 173.233 49.672C173.332 50.0913 173.381 50.7203 173.381 51.559C173.381 53.2117 173.159 54.2477 172.715 54.667ZM183.054 55.333C180.809 55.333 179.045 54.8027 177.763 53.742C177.245 53.298 176.788 52.6443 176.394 51.781C176.024 50.9177 175.839 49.9063 175.839 48.747C175.839 47.5877 176.11 46.5763 176.653 45.713C177.22 44.8497 177.898 44.1837 178.688 43.715C179.477 43.2463 180.402 42.864 181.463 42.568C183.066 42.1487 184.83 41.939 186.754 41.939H187.975C187.975 40.9277 187.629 40.2123 186.939 39.793C186.643 39.6203 186.186 39.534 185.57 39.534C184.978 39.534 184.25 39.6943 183.387 40.015C182.548 40.3357 181.845 40.6687 181.278 41.014C180.71 41.3347 180.328 41.495 180.131 41.495C179.687 41.495 179.082 40.9153 178.318 39.756C177.553 38.572 177.171 37.499 177.171 36.537C177.171 36.2163 177.627 35.797 178.54 35.279C179.452 34.761 180.735 34.2923 182.388 33.873C184.065 33.429 185.693 33.207 187.272 33.207C188.85 33.207 190.207 33.3427 191.342 33.614C192.501 33.8607 193.438 34.169 194.154 34.539C194.894 34.909 195.51 35.4023 196.004 36.019C196.522 36.6357 196.904 37.1907 197.151 37.684C197.422 38.1773 197.619 38.8187 197.743 39.608C197.915 40.5207 198.002 41.643 198.002 42.975V54.112C198.002 54.3833 197.336 54.6053 196.004 54.778C194.696 54.926 193.389 55 192.082 55C190.799 55 189.96 54.963 189.566 54.889C189.196 54.815 188.974 54.7287 188.9 54.63C188.826 54.5313 188.764 54.3587 188.715 54.112L188.419 52.003H188.123C187.506 54.223 185.816 55.333 183.054 55.333ZM188.012 49.191V44.862C187.37 44.862 186.852 45.1333 186.458 45.676C186.063 46.2187 185.866 46.8353 185.866 47.526C185.866 49.154 186.236 49.968 186.976 49.968C187.296 49.968 187.543 49.894 187.716 49.746C187.913 49.5733 188.012 49.3883 188.012 49.191ZM210.658 55.333C206.563 55.333 203.566 54.9383 201.667 54.149C200.705 53.7297 200.224 53.3227 200.224 52.928C200.224 51.9167 200.52 50.7327 201.112 49.376C201.704 48.0193 202.222 47.341 202.666 47.341C202.912 47.341 203.739 47.6123 205.145 48.155C206.575 48.6977 207.772 48.969 208.734 48.969C209.72 48.969 210.362 48.9073 210.658 48.784C210.978 48.6607 211.139 48.4263 211.139 48.081C211.139 47.711 210.892 47.4273 210.399 47.23C209.905 47.008 209.289 46.86 208.549 46.786C207.809 46.712 207.007 46.564 206.144 46.342C205.305 46.12 204.516 45.8363 203.776 45.491C203.036 45.1457 202.419 44.5783 201.926 43.789C201.432 42.975 201.186 42.1117 201.186 41.199C201.186 40.2617 201.21 39.571 201.26 39.127C201.309 38.6583 201.506 38.017 201.852 37.203C202.222 36.3643 202.727 35.686 203.369 35.168C204.035 34.65 205.046 34.1813 206.403 33.762C207.784 33.3427 209.326 33.133 211.028 33.133C212.73 33.133 214.148 33.1947 215.283 33.318C216.442 33.4167 217.342 33.5523 217.984 33.725C218.65 33.8977 219.192 34.095 219.612 34.317C220.327 34.687 220.685 35.094 220.685 35.538C220.685 36.5 220.339 37.61 219.649 38.868C218.958 40.126 218.403 40.755 217.984 40.755C217.589 40.755 216.713 40.5453 215.357 40.126C214 39.682 213.001 39.46 212.36 39.46C211.324 39.46 210.806 39.756 210.806 40.348C210.806 40.718 211.151 41.0017 211.842 41.199C212.557 41.3717 213.408 41.5567 214.395 41.754C215.381 41.9513 216.368 42.235 217.355 42.605C218.366 42.9503 219.217 43.5917 219.908 44.529C220.623 45.4663 220.981 46.6503 220.981 48.081C220.981 52.9157 217.54 55.333 210.658 55.333Z" fill="white"/>
</svg>
