<svg width="141" height="173" viewBox="0 0 141 173" fill="none" xmlns="http://www.w3.org/2000/svg">
    <path d="M34.4661 133.742C31.2364 133.742 28.737 133.753 26.2378 133.74C13.2862 133.672 7.5647 127.385 9.30858 114.917C12.5203 91.9547 16.1128 69.0373 18.9212 46.0297C19.938 37.7 17.896 38.0625 28.396 38.0625C35.896 38.0625 36.8048 38.0625 40.146 38.0625C40.146 19.0312 47.0001 9.96875 62.6668 9.96875C78.3335 9.96875 85.1876 19.9375 85.1876 38.0625C89.6954 38.0625 89.8535 38.0625 99.6035 38.0625C104.092 37.7853 105.879 39.0432 106.367 43.1061C107.028 48.6175 108.394 56.1042 108.75 61.625C108.75 61.625 109.27 66.7 106.5 66.7C103.73 66.7 102.813 64.3438 102.19 60.6504C101.279 55.2428 100.442 49.7854 99.6035 44.0996C75.1765 44.0996 51.2517 44.0996 26.4333 44.0996C25.2306 52.2072 23.9435 60.466 22.791 68.7423C20.559 84.7699 18.2672 100.792 16.2732 116.847C15.293 124.741 18.0422 127.58 26.1266 127.768C31.8717 127.902 37.642 127.556 43.3587 127.97C45.005 128.09 48.0706 127.97 48.0706 131.254C47.2501 134.125 45.1846 133.499 43.5496 133.742C40.8636 134.142 37.9458 133.739 34.4661 133.742ZM46.021 38.0625C58.7501 38.0625 58.7501 38.0625 78.3335 38.0625C78.3335 29 77.7975 20.1886 71.4793 17.2188C66.8041 15.0212 57.2435 14.9782 53.8543 17.2188C47.0001 21.75 46.021 29 46.021 38.0625Z" fill="#364663" />
    <path d="M57.5283 88.9193C60.2633 68.15 60.5117 71.2075 78.7788 71.2077C91.7558 71.2077 104.738 71.4049 117.707 71.1098C122.772 70.9946 124.922 72.8233 125.519 77.5245C127.22 90.915 129.335 104.258 130.925 117.66C132.076 127.369 126.044 134.046 115.846 134.216C100.129 134.479 84.3991 134.492 68.6824 134.208C58.6746 134.028 53.0483 128.054 53.8063 118.245C54.548 108.647 56.1857 99.1142 57.5283 88.9193ZM78.8617 127.758C88.0821 127.758 97.3025 127.758 106.523 127.758C125.072 127.758 125.407 127.397 123.128 109.956C123.004 109 122.999 108.03 122.855 107.078C121.401 97.4681 119.931 87.8609 118.525 78.6458C100.361 78.6458 83.288 78.6458 66.1078 78.6458C64.2798 91.5159 62.5328 103.908 60.7553 116.295C59.6219 124.194 62.4726 127.524 70.6761 127.747C72.9171 127.808 75.1614 127.758 78.8617 127.758Z" fill="#364663" />
    <path d="M89.3033 109.781C81.7581 109.059 75.015 101.09 75.3249 93.5597C75.4031 91.6592 75 88.45 78 88.0159C81 87.5817 81.6354 90.9724 81.7582 92.5815C82.2502 99.0306 85.27 103.596 91.9986 103.711C99.1108 103.832 102.414 99.3299 102.773 92.4443C102.852 90.9147 103.5 88.45 106.306 88.0159C108.75 88.45 109.268 91.2276 109.379 92.9175C110.027 102.796 101.25 110.925 89.3033 109.781Z" fill="#364663" />
    <ellipse cx="46.05" cy="57.565" rx="4.05" ry="3.915" fill="#364663" />
    <ellipse cx="79.05" cy="57.565" rx="4.05" ry="3.915" fill="#364663" />
    <path d="M9.07061 143.353C9.11988 143.159 9.46005 142.996 10.0911 142.863C10.7271 142.711 11.5556 142.652 12.5767 142.686C13.5978 142.72 14.5654 142.884 15.4794 143.178C17.3265 143.771 18.1628 144.532 17.9884 145.462L16.3521 154.937L16.7234 155.056L19.5839 146.477C19.7452 146.005 20.5105 145.789 21.88 145.831C23.2494 145.872 24.4197 146.049 25.3909 146.361C26.362 146.673 27.0635 146.992 27.4952 147.32C27.9459 147.653 28.2133 147.938 28.2974 148.175C28.3863 148.392 28.4135 148.568 28.379 148.704C28.3445 148.84 27.6814 149.707 26.3895 151.304C25.1167 152.908 22.5 156.356 18.5394 161.646C18.2307 162.05 16.6197 161.784 13.7062 160.849C12.7922 160.555 12.2047 160.314 11.9437 160.125C11.6876 159.917 11.544 159.672 11.5128 159.39C11.0563 155.595 10.5289 151.998 9.93082 148.598C9.33764 145.179 9.0509 143.43 9.07061 143.353Z" fill="#364663" />
    <path d="M39.7032 150.466L37.904 165.146C37.8773 165.364 37.2809 165.463 36.1149 165.443C34.9711 165.405 33.795 165.302 32.5866 165.135C31.398 164.97 30.6315 164.813 30.2871 164.664C29.9649 164.498 29.8196 164.286 29.8512 164.028L31.5847 149.884C31.6383 149.447 32.2452 149.097 33.4057 148.835C34.5884 148.555 35.8434 148.507 37.1707 148.691C38.9734 148.941 39.8176 149.533 39.7032 150.466ZM36.6218 142.073C37.9292 142.255 38.9251 142.595 39.6094 143.094C40.316 143.575 40.6072 144.323 40.4832 145.335C40.2642 147.122 38.768 147.822 35.9946 147.437C33.2212 147.053 31.9439 145.967 32.1629 144.18C32.3819 142.393 33.8682 141.691 36.6218 142.073Z" fill="#364663" />
    <path d="M50.5192 151.179L49.6195 165.941C49.6062 166.161 49.0169 166.296 47.8518 166.347C46.7079 166.379 45.5277 166.349 44.3113 166.255C43.1149 166.163 42.3402 166.053 41.9873 165.926C41.6556 165.78 41.4977 165.577 41.5135 165.317L42.3803 151.094C42.4071 150.655 42.9916 150.268 44.1338 149.935C45.2972 149.583 46.5469 149.459 47.883 149.562C49.6976 149.702 50.5763 150.241 50.5192 151.179ZM46.9311 142.99C48.2472 143.092 49.262 143.37 49.9755 143.826C50.7101 144.264 51.0464 144.992 50.9844 146.01C50.8749 147.807 49.4243 148.598 46.6326 148.383C43.8408 148.168 42.4997 147.162 42.6092 145.365C42.7187 143.569 44.1593 142.777 46.9311 142.99Z" fill="#364663" />
    <path d="M73.2613 157.508L73.1827 166.747C73.1808 166.967 72.6095 167.133 71.4686 167.245C70.328 167.338 69.1478 167.369 67.9282 167.339C66.7285 167.309 65.9492 167.24 65.5901 167.132C65.2513 167.003 65.0829 166.809 65.0851 166.549L65.1663 157.009C65.1739 156.109 65.139 155.519 65.0614 155.237C65.0038 154.955 64.9459 154.704 64.8878 154.482C64.7511 154.099 64.5028 153.903 64.1429 153.894C63.583 153.88 63.3008 154.143 63.2962 154.683L63.1957 166.503C63.1938 166.723 62.6225 166.889 61.4816 167.001C60.3609 167.094 59.1908 167.125 57.9712 167.095C56.7715 167.066 55.9922 166.997 55.6331 166.888C55.2743 166.759 55.0959 166.565 55.0981 166.305L55.2239 151.515C55.2275 151.095 55.8009 150.689 56.9441 150.297C58.1073 149.905 59.3288 149.725 60.6084 149.757C61.888 149.788 62.6046 150.176 62.7583 150.919L63.017 152.246L63.2269 152.251C63.8166 151.105 64.8232 150.32 66.2467 149.895C66.828 149.729 67.4686 149.655 68.1684 149.672C70.1878 149.721 71.5422 150.364 72.2316 151.601C72.9412 152.819 73.2844 154.788 73.2613 157.508Z" fill="#364663" />
    <path d="M90.141 166.425C89.8037 166.793 88.9971 167.028 87.7212 167.131C86.4453 167.233 85.3836 167.238 84.5362 167.146C83.6875 167.033 82.8685 166.758 82.0792 166.32C80.5617 165.459 79.7047 163.481 79.5081 160.387L79.2113 155.717L77.7161 155.837C77.4968 155.854 77.2928 155.64 77.1041 155.194C76.9155 154.748 76.7958 154.125 76.745 153.327C76.6943 152.528 76.7695 151.82 76.9707 151.202C77.1905 150.563 77.4998 150.227 77.8985 150.195L78.8555 150.118L78.6252 146.495C78.5859 145.877 79.1523 145.33 80.3243 144.854C81.5163 144.378 82.6904 144.093 83.8467 144C85.6609 143.854 86.5965 144.23 86.6536 145.129L86.9295 149.47L89.1424 149.292C89.6607 149.251 89.9674 149.978 90.0626 151.475C90.1247 152.453 90.0565 153.271 89.8578 153.929C89.6779 154.566 89.4084 154.898 89.0496 154.927L87.2853 155.069L87.6335 160.548C87.6677 161.086 87.9217 161.457 88.3955 161.66C88.8679 161.843 89.2736 161.921 89.6125 161.893C89.9714 161.864 90.2015 162.017 90.3028 162.349C90.4041 162.682 90.4763 163.188 90.5194 163.867C90.6044 165.204 90.4783 166.057 90.141 166.425Z" fill="#364663" />
    <path d="M100.335 166.256C98.5334 166.511 97.0834 166.282 95.9854 165.571C95.541 165.271 95.1326 164.794 94.7602 164.141C94.4076 163.485 94.1941 162.689 94.1195 161.752C94.045 160.815 94.1978 159.966 94.5779 159.207C94.9779 158.445 95.4797 157.83 96.0832 157.361C96.6868 156.893 97.4048 156.479 98.2374 156.119C99.4976 155.599 100.9 155.229 102.445 155.011L103.425 154.872C103.36 154.055 103.037 153.516 102.455 153.255C102.206 153.149 101.835 153.131 101.34 153.201C100.864 153.268 100.29 153.481 99.6178 153.838C98.9652 154.192 98.4222 154.541 97.9889 154.884C97.554 155.208 97.2574 155.381 97.099 155.403C96.7425 155.454 96.2201 155.054 95.5316 154.203C94.8416 153.333 94.4656 152.509 94.4038 151.732C94.3831 151.473 94.7225 151.082 95.422 150.56C96.1214 150.037 97.121 149.513 98.4209 148.987C99.7389 148.438 101.032 148.073 102.299 147.894C103.566 147.715 104.664 147.671 105.593 147.762C106.539 147.83 107.312 147.972 107.91 148.19C108.528 148.405 109.055 148.734 109.49 149.177C109.946 149.616 110.288 150.022 110.518 150.392C110.768 150.76 110.967 151.256 111.117 151.88C111.314 152.598 111.456 153.496 111.542 154.572L112.258 163.574C112.275 163.793 111.755 164.048 110.697 164.339C109.656 164.607 108.612 164.815 107.562 164.963C106.532 165.109 105.857 165.174 105.535 165.159C105.233 165.141 105.049 165.096 104.984 165.025C104.918 164.954 104.857 164.821 104.802 164.627L104.429 162.956L104.191 162.99C103.839 164.854 102.553 165.943 100.335 166.256ZM103.921 160.73L103.643 157.231C103.128 157.303 102.729 157.581 102.447 158.065C102.165 158.548 102.047 159.069 102.091 159.627C102.196 160.943 102.545 161.559 103.139 161.475C103.397 161.439 103.59 161.351 103.719 161.212C103.866 161.05 103.934 160.889 103.921 160.73Z" fill="#364663" />
    <path d="M124.885 162.521C121.626 163.157 119.199 163.305 117.604 162.966C116.793 162.778 116.367 162.526 116.325 162.208C116.217 161.396 116.327 160.398 116.653 159.216C116.98 158.033 117.32 157.407 117.673 157.339C117.87 157.3 118.556 157.39 119.733 157.608C120.929 157.822 121.91 157.854 122.676 157.705C123.461 157.551 123.965 157.402 124.187 157.257C124.429 157.108 124.532 156.895 124.495 156.617C124.456 156.32 124.229 156.13 123.815 156.048C123.399 155.947 122.893 155.923 122.296 155.979C121.699 156.034 121.045 156.04 120.335 155.995C119.644 155.947 118.985 155.842 118.36 155.679C117.734 155.516 117.183 155.156 116.706 154.598C116.227 154.021 115.939 153.365 115.841 152.632C115.742 151.878 115.688 151.319 115.68 150.955C115.669 150.57 115.758 150.024 115.946 149.316C116.151 148.585 116.481 147.961 116.936 147.445C117.411 146.925 118.166 146.391 119.201 145.844C120.255 145.292 121.46 144.884 122.814 144.62C124.169 144.355 125.304 144.185 126.22 144.108C127.153 144.007 127.884 143.976 128.413 144.015C128.961 144.051 129.414 144.125 129.772 144.238C130.38 144.425 130.708 144.696 130.756 145.053C130.858 145.826 130.702 146.772 130.286 147.891C129.87 149.009 129.496 149.601 129.162 149.666C128.848 149.727 128.129 149.695 127.004 149.568C125.877 149.422 125.059 149.399 124.548 149.498C123.724 149.659 123.343 149.978 123.406 150.454C123.446 150.751 123.751 150.925 124.321 150.977C124.909 151.004 125.606 151.021 126.412 151.026C127.218 151.032 128.034 151.106 128.858 151.251C129.7 151.371 130.446 151.754 131.095 152.401C131.764 153.043 132.175 153.939 132.327 155.089C132.842 158.975 130.361 161.452 124.885 162.521Z" fill="#364663" />
</svg>