<svg width="30" height="30" viewBox="0 0 30 30" fill="none" xmlns="http://www.w3.org/2000/svg">
<path d="M12.5 22.5C14.8075 22.5 16.9288 21.7063 18.6213 20.39L24.1163 25.885L25.8838 24.1175L20.3888 18.6225C21.7063 16.9287 22.5 14.8075 22.5 12.5C22.5 6.98625 18.0138 2.5 12.5 2.5C6.98625 2.5 2.5 6.98625 2.5 12.5C2.5 18.0137 6.98625 22.5 12.5 22.5ZM12.5 5C16.6363 5 20 8.36375 20 12.5C20 16.6363 16.6363 20 12.5 20C8.36375 20 5 16.6363 5 12.5C5 8.36375 8.36375 5 12.5 5Z" fill="#fff"/>
<path d="M14.265 10.7326C14.7388 11.2076 15 11.8351 15 12.5001H17.5C17.5 11.1689 16.98 9.91386 16.0325 8.96511C14.14 7.07511 10.8588 7.07511 8.96753 8.96511L10.7325 10.7351C11.6825 9.78761 13.32 9.79011 14.265 10.7326Z" fill="#fff"/>
</svg>
